<svg xmlns="http://www.w3.org/2000/svg" xmlns:xlink="http://www.w3.org/1999/xlink" version="1.1" width="20" height="20" viewBox="0 0 256 256" xml:space="preserve">

<defs>
</defs>
<g style="stroke: none; stroke-width: 0; stroke-dasharray: none; stroke-linecap: butt; stroke-linejoin: miter; stroke-miterlimit: 10; fill: none; fill-rule: nonzero; opacity: 1;" transform="translate(1.4065934065934016 1.4065934065934016) scale(2.81 2.81)" >
	<path d="M 1 90 c -0.261 0 -0.517 -0.103 -0.707 -0.293 c -0.267 -0.267 -0.36 -0.66 -0.244 -1.018 l 6.595 -20.166 C 2.296 61.449 0 53.326 0 45 C 0 20.187 20.187 0 45 0 c 24.813 0 45 20.187 45 45 c 0 24.813 -20.187 45 -45 45 c -8.326 0 -16.449 -2.296 -23.524 -6.644 L 1.311 89.95 C 1.209 89.983 1.104 90 1 90 z M 21.608 81.261 c 0.187 0 0.371 0.052 0.533 0.153 C 28.989 85.723 36.894 88 45 88 c 23.71 0 43 -19.29 43 -43 C 88 21.29 68.71 2 45 2 C 21.29 2 2 21.29 2 45 c 0 8.106 2.277 16.011 6.585 22.859 c 0.159 0.251 0.197 0.561 0.104 0.843 L 2.563 87.437 l 18.734 -6.126 C 21.399 81.277 21.504 81.261 21.608 81.261 z" style="stroke: none; stroke-width: 1; stroke-dasharray: none; stroke-linecap: butt; stroke-linejoin: miter; stroke-miterlimit: 10; fill: rgb(0,0,0); fill-rule: nonzero; opacity: 1;" transform=" matrix(1 0 0 1 0 0) " stroke-linecap="round" />
	<path d="M 61.41 47 c -0.13 0 -0.261 -0.01 -0.391 -0.04 c -0.13 -0.021 -0.25 -0.061 -0.37 -0.11 c -0.119 -0.05 -0.239 -0.109 -0.34 -0.189 c -0.109 -0.07 -0.22 -0.15 -0.31 -0.25 c -0.38 -0.37 -0.59 -0.88 -0.59 -1.41 c 0 -0.53 0.22 -1.04 0.59 -1.41 c 0.47 -0.47 1.16 -0.68 1.81 -0.55 c 0.12 0.02 0.25 0.06 0.37 0.11 c 0.12 0.05 0.24 0.12 0.34 0.19 c 0.11 0.07 0.221 0.15 0.311 0.25 c 0.37 0.37 0.58 0.88 0.58 1.41 c 0 0.54 -0.2 1.04 -0.58 1.41 c -0.101 0.1 -0.2 0.18 -0.311 0.25 c -0.1 0.08 -0.22 0.14 -0.34 0.189 s -0.24 0.09 -0.37 0.11 C 61.68 46.99 61.55 47 61.41 47 z" style="stroke: none; stroke-width: 1; stroke-dasharray: none; stroke-linecap: butt; stroke-linejoin: miter; stroke-miterlimit: 10; fill: rgb(0,0,0); fill-rule: nonzero; opacity: 1;" transform=" matrix(1 0 0 1 0 0) " stroke-linecap="round" />
	<path d="M 45 47 c -0.13 0 -0.26 -0.01 -0.39 -0.04 c -0.13 -0.021 -0.26 -0.061 -0.38 -0.11 C 44.11 46.8 44 46.74 43.89 46.66 c -0.11 -0.07 -0.21 -0.15 -0.3 -0.25 c -0.19 -0.181 -0.34 -0.4 -0.44 -0.64 C 43.05 45.52 43 45.27 43 45 c 0 -0.53 0.21 -1.04 0.59 -1.41 c 0.74 -0.75 2.08 -0.75 2.82 0 C 46.79 43.96 47 44.47 47 45 c 0 0.53 -0.21 1.03 -0.59 1.41 S 45.53 47 45 47 z" style="stroke: none; stroke-width: 1; stroke-dasharray: none; stroke-linecap: butt; stroke-linejoin: miter; stroke-miterlimit: 10; fill: rgb(0,0,0); fill-rule: nonzero; opacity: 1;" transform=" matrix(1 0 0 1 0 0) " stroke-linecap="round" />
	<path d="M 28.58 47 c -0.53 0 -1.03 -0.21 -1.41 -0.59 c -0.38 -0.37 -0.58 -0.88 -0.58 -1.41 c 0 -0.13 0.01 -0.26 0.04 -0.39 c 0.02 -0.13 0.06 -0.25 0.11 -0.37 c 0.05 -0.13 0.11 -0.24 0.18 -0.35 c 0.07 -0.11 0.16 -0.21 0.25 -0.3 c 0.75 -0.75 2.08 -0.75 2.83 0 c 0.09 0.09 0.18 0.19 0.25 0.3 c 0.07 0.11 0.13 0.22 0.18 0.35 c 0.05 0.12 0.09 0.24 0.11 0.37 c 0.03 0.13 0.04 0.26 0.04 0.39 c 0 0.53 -0.2 1.04 -0.58 1.41 C 29.62 46.79 29.12 47 28.58 47 z" style="stroke: none; stroke-width: 1; stroke-dasharray: none; stroke-linecap: butt; stroke-linejoin: miter; stroke-miterlimit: 10; fill: rgb(0,0,0); fill-rule: nonzero; opacity: 1;" transform=" matrix(1 0 0 1 0 0) " stroke-linecap="round" />
</g>
</svg>