<?xml version="1.0" standalone="no"?>
<!DOCTYPE svg PUBLIC "-//W3C//DTD SVG 20010904//EN"
 "http://www.w3.org/TR/2001/REC-SVG-20010904/DTD/svg10.dtd">
<svg version="1.0" xmlns="http://www.w3.org/2000/svg"
 width="13pt" height="22pt" viewBox="0 0 640.000000 1280.000000"
 preserveAspectRatio="xMidYMid meet">
<metadata>
Created by potrace 1.15, written by Peter Selinger 2001-2017
</metadata>
<g transform="translate(0.000000,1280.000000) scale(0.100000,-0.100000)"
fill="#000000" stroke="none">
<path d="M2690 12709 c0 -52 -7 -197 -15 -324 -8 -126 -15 -256 -15 -289 l0
-59 38 7 c20 3 82 11 137 17 154 16 829 -11 919 -38 19 -5 19 0 12 173 -16
389 -23 534 -27 538 -6 7 -242 35 -379 45 -69 6 -248 13 -397 17 l-273 7 0
-94z"/>
<path d="M2810 11978 c0 -30 -9 -71 -20 -95 -17 -38 -29 -47 -106 -85 -112
-56 -123 -75 -132 -227 l-7 -108 -100 -89 c-675 -599 -1077 -1218 -1213 -1874
-39 -188 -47 -271 -47 -520 0 -286 15 -416 86 -720 36 -156 50 -205 104 -355
69 -191 68 -183 56 -1250 -6 -517 -14 -1181 -17 -1475 -5 -480 -8 -540 -24
-585 -79 -221 -252 -1082 -435 -2170 -88 -523 -114 -837 -95 -1137 19 -313 69
-524 171 -733 33 -69 57 -98 171 -213 198 -198 271 -241 386 -229 137 14 301
134 854 621 l86 76 11 -32 c16 -49 159 -620 172 -690 11 -55 14 -59 35 -54 19
5 24 2 24 -14 0 -20 5 -20 429 -20 331 0 431 3 438 13 5 6 65 163 133 347 68
184 130 350 137 368 l14 33 141 -123 c517 -451 651 -540 794 -525 95 10 163
55 322 216 126 127 149 155 187 230 126 253 185 603 171 1016 -9 286 -29 449
-112 934 -192 1128 -366 1979 -429 2100 -11 23 -16 187 -24 927 -6 494 -14
1149 -17 1454 -7 611 -1 730 43 855 112 316 170 561 204 863 17 158 7 548 -19
692 -99 548 -344 1026 -777 1520 -100 113 -391 401 -497 490 l-65 55 -5 111
c-6 144 -17 166 -115 214 -40 19 -83 46 -97 59 -25 23 -46 93 -46 151 0 28 -3
30 -36 30 l-37 0 7 -65 c13 -123 46 -171 155 -223 48 -24 80 -46 88 -62 8 -15
13 -67 13 -132 l0 -106 128 -113 c70 -61 188 -173 262 -248 573 -577 883
-1152 971 -1801 21 -156 16 -497 -10 -670 -32 -212 -87 -447 -138 -595 -60
-174 -82 -256 -90 -339 l-6 -68 -796 6 c-438 3 -1199 9 -1692 12 l-896 7 -7
75 c-4 45 -21 116 -43 176 -83 237 -141 465 -178 706 -23 143 -31 507 -15 652
61 565 308 1089 757 1608 112 129 407 421 526 520 l77 64 0 96 c0 52 5 112 11
133 9 34 18 42 85 74 119 57 164 127 164 253 0 39 -1 40 -35 40 l-35 0 0 -52z
m2101 -7190 c1 -109 12 -181 37 -246 64 -166 245 -1070 416 -2085 85 -505 106
-694 106 -992 0 -369 -58 -668 -171 -886 -34 -65 -63 -99 -177 -211 -294 -288
-321 -280 -971 283 -111 95 -201 178 -201 184 0 6 25 79 56 161 30 82 76 208
100 279 84 238 174 385 237 385 60 0 128 -130 176 -333 17 -71 18 -72 46 -69
17 2 32 5 34 7 5 6 -17 99 -46 190 -86 274 -200 343 -331 201 -62 -68 -116
-178 -186 -376 -29 -85 -142 -391 -249 -680 l-195 -525 -405 -3 -405 -2 -7 37
c-12 69 -125 519 -176 704 -207 754 -336 1017 -502 1019 -91 0 -195 -118 -281
-317 -58 -136 -108 -285 -99 -294 5 -5 19 -10 32 -11 21 -3 26 5 51 77 84 243
173 407 249 457 80 54 167 -27 258 -242 59 -138 231 -680 216 -680 -3 0 -12 9
-21 21 -17 20 -20 18 -197 -137 -403 -351 -553 -467 -652 -504 -130 -48 -194
-19 -388 175 -121 121 -145 151 -178 219 -117 242 -162 490 -161 891 2 385 26
568 230 1689 143 789 247 1275 299 1393 22 49 25 69 25 179 l0 124 1715 0
1715 0 1 -82z"/>
</g>
</svg>
